PathFileType	4	(X/Y/Z)	C:/Users/beibeiliu/ov580/test_trc/User3\sequence.11_training_dense_left.trc
DataRate	CameraRate	NumFrames	NumMarkers	Units	OrigDataRate	OrigDataStartFrame	OrigNumFrames
120	120	7	19	mm	120	29	56
Frame#	Time	ThumbCMC			ThumbMCP			ThumbIP			ThumbTip			IndexMCP			IndexPIP			IndexTip			MiddleMCP			MiddlePIP			MiddleTip			RingMCP			RingPIP			RingTip			PinkyMCP			PinkyPIP			PinkyTip			BackHand1			BackHand2			BackHand3	
		X0	Y0	Z0	X1	Y1	Z1	X2	Y2	Z2	X3	Y3	Z3	X4	Y4	Z4	X5	Y5	Z5	X6	Y6	Z6	X7	Y7	Z7	X8	Y8	Z8	X9	Y9	Z9	X10	Y10	Z10	X11	Y11	Z11	X12	Y12	Z12	X13	Y13	Z13	X14	Y14	Z14	X15	Y15	Z15	X16	Y16	Z16	X17	Y17	Z17	X18	Y18	Z18	
28	0.233333	-131.722	9.81771	-25.9277	-119.694	-5.8787	-44.4048	-110.074	-19.4755	-71.2572	-108.827	-31.9823	-90.2092	-159.426	39.57	-92.2669	-156.937	39.1979	-119.707	-158.228	28.7888	-149.802	-184.536	46.4182	-87.8681	-190.717	51.5176	-120.825	-197.71	44.335	-148.312	-209.162	38.77	-80.4217	-218.292	40.1121	-107.068	-227.266	30.4162	-129.386	-225.033	25.3515	-59.6093	-242.212	21.7791	-79.9114	-253.185	11.6882	-100.163	-197.98	39.2269	-31.2329	-189.666	35.1604	2.24565	-162.312	39.2191	-22.654	
29	0.241667	-125.578	-0.114072	-19.4043	-113.397	-18.8511	-40.7101	-97.8861	-36.9855	-60.2009	-97.3868	-53.7664	-78.1232	-149.001	18.1641	-92.8719	-141.73	11.5225	-121.981	-139.85	-5.74309	-147.015	-176.886	28.6113	-95.0069	-178.566	25.0769	-125.27	-182.465	10.0447	-157.338	-197.504	21.0383	-84.5331	-207.585	16.4753	-110.216	-219.109	2.25909	-130.903	-214.204	12.5301	-64.411	-231.704	6.90805	-84.7331	-240.436	-8.42097	-102.563	-182.806	30.1153	-33.2451	-180.932	31.2599	-5.63666	-151.315	30.4456	-26.3307	
30	0.25	-125.138	-4.66925	-15.0685	-103.864	-26.1333	-28.6109	-95.0644	-45.9065	-42.2912	-88.7634	-65.6123	-58.6638	-135.941	-5.12882	-91.2512	-133.832	-16.8974	-113.224	-130.846	-41.6387	-134.803	-169.075	2.48101	-91.0549	-169.724	-8.06194	-122.625	-171.028	-30.5273	-145.481	-191.475	-2.59944	-84.2906	-201.359	-16.4989	-107.563	-201.882	-38.9244	-125.122	-210.782	-9.62956	-63.265	-223.065	-21.4747	-78.6473	-230.241	-44.8803	-96.2491	-185.51	19.0962	-37.2205	-182.597	25.804	-6.23367	-151.492	22.421	-26.8371	
31	0.258333	-122.678	-3.51223	0.505757	-98.4241	-25.4614	-6.56965	-85.5122	-44.6572	-17.0282	-70.8875	-64.4255	-25.2856	-128.975	-27.7608	-75.9183	-116.487	-45.0259	-92.2997	-109.194	-71.7367	-103.365	-155.713	-26.9194	-83.4801	-151.333	-46.8003	-105.779	-145.249	-76.1916	-121.76	-182.662	-32.7143	-69.665	-183.358	-50.8213	-89.2189	-182.188	-80.5316	-100.168	-202.139	-35.4027	-49.0242	-211.034	-56.4149	-65.3356	-210.731	-77.8628	-72.3164	-181.873	3.1839	-32.1713	-182.403	17.2682	-4.01926	-146.832	12.4453	-21.8849	
32	0.266667	-122.254	2.63364	12.269	-98.4771	-14.6534	12.8872	-75.2176	-32.4707	10.1536	-61.9768	-50.8758	6.02768	-113.558	-37.164	-49.6377	-98.7758	-61.7095	-62.6873	-88.0511	-87.2204	-65.9474	-141.008	-46.6903	-60.558	-129.605	-70.2501	-77.4581	-115.665	-101.276	-81.8887	-162.548	-52.5101	-52.6629	-161.149	-76.4237	-64.8398	-153.972	-105.374	-65.707	-187.693	-56.6288	-34.6516	-184.512	-79.1508	-44.5478	-181.173	-105.576	-44.9156	-177.149	-9.98582	-27.1518	-183.363	11.2983	-3.49898	-151.39	7.56043	-14.1986	
33	0.275	-123.389	21.0715	15.2514	-96.6296	6.03862	19.1035	-69.9476	-10.2703	18.975	-55.8976	-20.6084	21.5182	-105.075	-32.4163	-39.2947	-84.6333	-52.9905	-46.3046	-67.232	-75.0538	-42.6568	-122.344	-46.3854	-49.6262	-107.654	-68.4902	-58.493	-88.9939	-94.4114	-57.1287	-144.297	-56.2153	-41.7576	-136.79	-79.2116	-47.3734	-123.364	-107.297	-42.4944	-169.866	-64.2775	-26.2532	-161.009	-84.2588	-27.6117	-157.04	-107.519	-25.3483	-168.804	-10.4143	-25.2601	-183.408	8.47148	-9.79409	-150.668	13.4382	-16.8305	
34	0.283333	-134.656	43.0551	9.76858	-103.602	41.2157	16.8001	-76.6471	33.2305	17.7188	-55.0794	24.546	18.9541	-97.5502	-4.27183	-38.1793	-69.4604	-22.475	-42.6894	-51.5955	-35.1022	-39.3273	-108.684	-26.4676	-47.6733	-86.5478	-45.7417	-52.7848	-58.9099	-65.2281	-47.7749	-130.55	-42.761	-36.674	-109.618	-62.175	-41.6751	-90.9891	-84.2456	-33.6738	-151.547	-51.6079	-17.1017	-135.13	-73.808	-18.7221	-120.544	-91.5995	-14.4529	-165.646	-4.4683	-25.1231	-188.801	11.861	-9.41434	-156.679	23.7829	-19.8178	
